<svg width="299" height="84" viewBox="0 0 299 84" fill="none" xmlns="http://www.w3.org/2000/svg">
  <rect width="299" height="84" fill="#F5F5F5" />
  <rect width="299" height="84" rx="12" fill="white" />
  <rect x="0.5" y="0.5" width="298" height="83" rx="11.5" stroke="black" stroke-opacity="0.1" />
  <path
    d="M83.1562 62V30H88.9531V57.1406H103.047V62H83.1562ZM123.125 51.9062V38H128.781V62H123.297V57.7344H123.047C122.505 59.0781 121.615 60.1771 120.375 61.0312C119.146 61.8854 117.63 62.3125 115.828 62.3125C114.255 62.3125 112.865 61.9635 111.656 61.2656C110.458 60.5573 109.521 59.5312 108.844 58.1875C108.167 56.8333 107.828 55.1979 107.828 53.2812V38H113.484V52.4062C113.484 53.9271 113.901 55.1354 114.734 56.0313C115.568 56.9271 116.661 57.375 118.016 57.375C118.849 57.375 119.656 57.1719 120.438 56.7656C121.219 56.3594 121.859 55.7552 122.359 54.9531C122.87 54.1406 123.125 53.125 123.125 51.9062ZM134.598 62V38H140.004V42.0781H140.285C140.785 40.7031 141.613 39.6302 142.77 38.8594C143.926 38.0781 145.306 37.6875 146.91 37.6875C148.535 37.6875 149.905 38.0833 151.02 38.875C152.145 39.6562 152.936 40.724 153.395 42.0781H153.645C154.176 40.7448 155.072 39.6823 156.332 38.8906C157.603 38.0885 159.108 37.6875 160.848 37.6875C163.056 37.6875 164.858 38.3854 166.254 39.7812C167.65 41.1771 168.348 43.2135 168.348 45.8906V62H162.676V46.7656C162.676 45.276 162.28 44.1875 161.488 43.5C160.697 42.8021 159.728 42.4531 158.582 42.4531C157.217 42.4531 156.15 42.8802 155.379 43.7344C154.618 44.5781 154.238 45.6771 154.238 47.0312V62H148.691V46.5312C148.691 45.2917 148.316 44.3021 147.566 43.5625C146.827 42.8229 145.858 42.4531 144.66 42.4531C143.848 42.4531 143.108 42.6615 142.441 43.0781C141.775 43.4844 141.243 44.0625 140.848 44.8125C140.452 45.5521 140.254 46.4167 140.254 47.4062V62H134.598ZM174.086 62V38H179.742V62H174.086ZM176.93 34.5938C176.034 34.5938 175.263 34.2969 174.617 33.7031C173.971 33.099 173.648 32.375 173.648 31.5312C173.648 30.6771 173.971 29.9531 174.617 29.3594C175.263 28.7552 176.034 28.4531 176.93 28.4531C177.836 28.4531 178.607 28.7552 179.242 29.3594C179.888 29.9531 180.211 30.6771 180.211 31.5312C180.211 32.375 179.888 33.099 179.242 33.7031C178.607 34.2969 177.836 34.5938 176.93 34.5938ZM185.559 62V38H191.043V42H191.293C191.73 40.6146 192.48 39.5469 193.543 38.7969C194.616 38.0365 195.84 37.6562 197.215 37.6562C197.527 37.6562 197.876 37.6719 198.262 37.7031C198.658 37.724 198.986 37.7604 199.246 37.8125V43.0156C199.007 42.9323 198.626 42.8594 198.105 42.7969C197.595 42.724 197.1 42.6875 196.621 42.6875C195.59 42.6875 194.663 42.9115 193.84 43.3594C193.027 43.7969 192.387 44.4062 191.918 45.1875C191.449 45.9687 191.215 46.8698 191.215 47.8906V62H185.559ZM212.641 62.4688C210.234 62.4688 208.156 61.9688 206.406 60.9688C204.667 59.9583 203.328 58.5312 202.391 56.6875C201.453 54.8333 200.984 52.651 200.984 50.1406C200.984 47.6719 201.453 45.5052 202.391 43.6406C203.339 41.7656 204.661 40.3073 206.359 39.2656C208.057 38.2135 210.052 37.6875 212.344 37.6875C213.823 37.6875 215.219 37.9271 216.531 38.4062C217.854 38.875 219.021 39.6042 220.031 40.5937C221.052 41.5833 221.854 42.8437 222.438 44.375C223.021 45.8958 223.313 47.7083 223.313 49.8125V51.5469H203.641V47.7344H217.891C217.88 46.651 217.646 45.6875 217.188 44.8437C216.729 43.9896 216.089 43.3177 215.266 42.8281C214.453 42.3385 213.505 42.0937 212.422 42.0937C211.266 42.0937 210.25 42.375 209.375 42.9375C208.5 43.4896 207.818 44.2187 207.328 45.125C206.849 46.0208 206.604 47.0052 206.594 48.0781V51.4062C206.594 52.8021 206.849 54 207.359 55C207.87 55.9896 208.583 56.75 209.5 57.2812C210.417 57.8021 211.49 58.0625 212.719 58.0625C213.542 58.0625 214.286 57.9479 214.953 57.7187C215.62 57.4792 216.198 57.1302 216.688 56.6719C217.177 56.2135 217.547 55.6458 217.797 54.9687L223.078 55.5625C222.745 56.9583 222.109 58.1771 221.172 59.2188C220.245 60.25 219.057 61.0521 217.609 61.625C216.161 62.1875 214.505 62.4688 212.641 62.4688ZM233.754 30V62H228.098V30H233.754ZM245.227 30V62H239.57V30H245.227ZM261.668 62.4688C259.262 62.4688 257.184 61.9688 255.434 60.9688C253.694 59.9583 252.355 58.5312 251.418 56.6875C250.48 54.8333 250.012 52.651 250.012 50.1406C250.012 47.6719 250.48 45.5052 251.418 43.6406C252.366 41.7656 253.689 40.3073 255.387 39.2656C257.085 38.2135 259.079 37.6875 261.371 37.6875C262.85 37.6875 264.246 37.9271 265.559 38.4062C266.882 38.875 268.048 39.6042 269.059 40.5937C270.079 41.5833 270.882 42.8437 271.465 44.375C272.048 45.8958 272.34 47.7083 272.34 49.8125V51.5469H252.668V47.7344H266.918C266.908 46.651 266.673 45.6875 266.215 44.8437C265.757 43.9896 265.116 43.3177 264.293 42.8281C263.48 42.3385 262.533 42.0937 261.449 42.0937C260.293 42.0937 259.277 42.375 258.402 42.9375C257.527 43.4896 256.845 44.2187 256.355 45.125C255.876 46.0208 255.632 47.0052 255.621 48.0781V51.4062C255.621 52.8021 255.876 54 256.387 55C256.897 55.9896 257.611 56.75 258.527 57.2812C259.444 57.8021 260.517 58.0625 261.746 58.0625C262.569 58.0625 263.314 57.9479 263.98 57.7187C264.647 57.4792 265.225 57.1302 265.715 56.6719C266.204 56.2135 266.574 55.6458 266.824 54.9687L272.105 55.5625C271.772 56.9583 271.137 58.1771 270.199 59.2188C269.272 60.25 268.085 61.0521 266.637 61.625C265.189 62.1875 263.533 62.4688 261.668 62.4688Z"
    fill="black"
  />
  <path
    d="M44.58 25.72L27.64 54C27.2907 54.6048 27.1059 55.2906 27.104 55.989C27.102 56.6875 27.283 57.3743 27.6289 57.981C27.9747 58.5878 28.4735 59.0935 29.0754 59.4477C29.6774 59.8019 30.3616 59.9923 31.06 60H64.94C65.6384 59.9923 66.3226 59.8019 66.9246 59.4477C67.5265 59.0935 68.0253 58.5878 68.3711 57.981C68.717 57.3743 68.898 56.6875 68.896 55.989C68.8941 55.2906 68.7093 54.6048 68.36 54L51.42 25.72C51.0635 25.1322 50.5614 24.6462 49.9624 24.309C49.3633 23.9717 48.6875 23.7945 48 23.7945C47.3125 23.7945 46.6367 23.9717 46.0376 24.309C45.4386 24.6462 44.9365 25.1322 44.58 25.72Z"
    stroke="#1E1E1E"
    stroke-width="4"
    stroke-linecap="round"
    stroke-linejoin="round"
  />
</svg>
